<?xml version="1.0" encoding="UTF-8" standalone="no"?><!DOCTYPE svg PUBLIC "-//W3C//DTD SVG 1.1//EN" "http://www.w3.org/Graphics/SVG/1.1/DTD/svg11.dtd"><svg width="100%" height="100%" viewBox="0 0 267 267" version="1.1" xmlns="http://www.w3.org/2000/svg" xmlns:xlink="http://www.w3.org/1999/xlink" xml:space="preserve" xmlns:serif="http://www.serif.com/" style="fill-rule:evenodd;clip-rule:evenodd;stroke-linejoin:round;stroke-miterlimit:2;"><rect id="Artboard2" x="-0" y="-0" width="266.667" height="266.667" style="fill:none;"/><g id="Drone"><path d="M189.583,251.765l2.084,-15.518l-58.334,-61.076l-58.333,61.076l2.083,15.518l56.25,-24.655l56.25,24.655Zm-16.765,-108.291l-21.075,-118.297l-36.82,0l-21.075,118.299l39.485,18.538l39.485,-18.54Zm-140.099,-71.06l0.01,0.016c8.173,-1.308 16.833,0.137 24.485,4.713c1.07,0.639 2.094,1.324 3.074,2.052c3.284,2.451 6.142,5.44 8.444,8.836c7.676,11.378 8.592,26.64 1.087,39.193c-0.661,1.106 -1.372,2.164 -2.128,3.174c-5.573,7.416 -13.902,12.644 -23.459,14.16l-0.009,-0.016c-8.173,1.308 -16.833,-0.138 -24.486,-4.713c-1.069,-0.64 -2.093,-1.325 -3.073,-2.053c-3.284,-2.45 -6.142,-5.44 -8.444,-8.835c-7.677,-11.379 -8.592,-26.64 -1.087,-39.194c0.661,-1.106 1.372,-2.164 2.128,-3.174c5.573,-7.415 13.901,-12.644 23.458,-14.159Zm201.228,-0l-0.009,0.016c-8.174,-1.308 -16.833,0.137 -24.486,4.713c-1.069,0.639 -2.093,1.324 -3.073,2.052c-3.284,2.451 -6.142,5.44 -8.444,8.836c-7.677,11.378 -8.592,26.64 -1.087,39.193c0.661,1.106 1.372,2.164 2.128,3.174c5.573,7.416 13.901,12.644 23.458,14.16l0.01,-0.016c8.173,1.308 16.832,-0.138 24.485,-4.713c1.069,-0.64 2.094,-1.325 3.074,-2.053c3.283,-2.45 6.142,-5.44 8.443,-8.835c7.677,-11.379 8.593,-26.64 1.088,-39.194c-0.661,-1.106 -1.372,-2.164 -2.128,-3.174c-5.573,-7.415 -13.902,-12.644 -23.459,-14.159Zm-185.728,19.776c8.993,5.377 11.93,17.044 6.553,26.038c-5.377,8.994 -17.045,11.931 -26.039,6.554c-8.994,-5.378 -11.93,-17.045 -6.553,-26.039c5.377,-8.994 17.045,-11.93 26.039,-6.553Zm170.229,-0c-8.994,5.377 -11.93,17.044 -6.553,26.038c5.377,8.994 17.044,11.931 26.038,6.554c8.994,-5.378 11.931,-17.045 6.554,-26.039c-5.377,-8.994 -17.045,-11.93 -26.039,-6.553Z" style="fill:#aeaeae;"/><path d="M114.923,25.177l-6.713,-10.274l-25.123,123.52l10.761,5.053l21.075,-118.299Zm36.82,-0.002l6.713,-10.274l25.124,123.52l-10.765,5.055l-21.072,-118.301Z" style="fill:#7e7e7e;"/><path d="M133.333,162.014l-50.246,-23.591l25.123,23.98l25.123,7.733l25.123,-7.733l25.124,-23.982l-50.247,23.593Zm-66.614,-30.379l6.369,11.033c1.778,3.079 0.721,7.022 -2.358,8.8l-11.158,6.442c-3.079,1.778 -7.022,0.721 -8.8,-2.358l-6.364,-11.023c8.943,-1.462 16.8,-6.18 22.311,-12.894Zm133.229,-0.002l-6.37,11.032c-1.777,3.08 -0.721,7.023 2.358,8.801l11.158,6.442c3.08,1.777 7.023,0.721 8.801,-2.358l6.363,-11.023c-8.943,-1.462 -16.799,-6.18 -22.31,-12.894Zm-116.861,6.79l25.123,-123.52l-23.789,62.605l-1.334,60.915Zm100.493,-0.002l-25.124,-123.52l23.79,62.605l1.334,60.915Zm-141.616,-33.474l8.311,-4.798c0.315,-0.182 0.719,-0.074 0.902,0.242l0.66,1.143c0.182,0.316 0.074,0.72 -0.242,0.902l-8.31,4.798c0.21,0.806 0.221,1.676 -0.01,2.538c-0.709,2.649 -3.436,4.223 -6.085,3.513c-0.862,-0.231 -1.61,-0.675 -2.203,-1.261l-8.31,4.798c-0.316,0.182 -0.72,0.074 -0.902,-0.241l-0.66,-1.144c-0.182,-0.315 -0.074,-0.719 0.242,-0.901l8.31,-4.798c-0.211,-0.807 -0.222,-1.677 0.009,-2.538c0.71,-2.649 3.437,-4.224 6.086,-3.514c0.862,0.231 1.61,0.675 2.202,1.261Zm182.738,-0.002l-8.31,-4.798c-0.316,-0.182 -0.72,-0.074 -0.902,0.242l-0.66,1.143c-0.182,0.315 -0.074,0.719 0.242,0.902l8.31,4.798c-0.211,0.806 -0.222,1.676 0.009,2.538c0.71,2.648 3.437,4.223 6.086,3.513c0.862,-0.231 1.609,-0.675 2.202,-1.261l8.311,4.798c0.315,0.182 0.719,0.074 0.902,-0.241l0.66,-1.144c0.182,-0.315 0.074,-0.719 -0.242,-0.902l-8.311,-4.798c0.211,-0.806 0.222,-1.676 -0.009,-2.538c-0.709,-2.648 -3.436,-4.223 -6.085,-3.513c-0.862,0.231 -1.61,0.675 -2.203,1.261Zm-214.469,-19.609l-6.37,-11.032c-1.777,-3.079 -0.721,-7.023 2.358,-8.8l11.159,-6.443c3.079,-1.777 7.022,-0.721 8.8,2.358l6.363,11.023c-8.943,1.463 -16.799,6.18 -22.31,12.894Zm246.201,-0.002l6.369,-11.032c1.778,-3.08 0.721,-7.023 -2.358,-8.801l-11.158,-6.442c-3.079,-1.777 -7.022,-0.721 -8.8,2.358l-6.364,11.023c8.943,1.462 16.8,6.18 22.311,12.894Zm-141.511,-60.157l-6.713,-10.274l50.246,-0.002l-6.713,10.274l-36.82,0.002Z" style="fill:#646464;"/><path d="M133.333,170.136l-25.123,-7.733l7.018,31.725l18.105,-18.957l18.106,18.957l7.017,-31.725l-25.123,7.733Zm-49.088,-84.584l-0.997,45.514l-12.99,-4.597c6.519,-11.51 6.104,-25.149 0.001,-35.967l13.986,-4.95Zm98.177,0l0.996,45.514l12.991,-4.597c-6.519,-11.51 -6.104,-25.149 -0.001,-35.967l-13.986,-4.95Z" style="fill:#515151;"/><path d="M126.828,50.926l12.761,-0l9.575,82.46l-15.955,9.623l-15.834,-9.623l9.453,-82.46Z" style="fill:#fff;"/></g></svg>